<?xml version="1.0" encoding="UTF-8" standalone="no"?>
<!-- Generator: Gravit.io -->
<svg xmlns="http://www.w3.org/2000/svg" xmlns:xlink="http://www.w3.org/1999/xlink" style="isolation:isolate" viewBox="0 0 48 48" width="48pt" height="48pt"><g style="opacity:0.98999999;"><g opacity="0.98999999"><path d=" M 46.5 24 C 46.5 30.019 44.109 35.792 39.852 40.049 C 35.596 44.305 29.823 46.696 23.804 46.696 C 17.784 46.696 12.011 44.305 7.755 40.049 C 3.499 35.792 1.108 30.019 1.108 24 C 1.108 11.465 11.269 1.304 23.804 1.304 C 36.339 1.304 46.5 11.465 46.5 24 Z " fill="rgb(189,147,249)" fill-opacity="0.7"/></g></g><path d=" M 35.804 15 L 29.804 12 L 20.98 20.824 L 14.804 16.5 L 11.804 18 L 17.804 24 L 11.804 30 L 14.804 31.5 L 20.98 27.176 L 29.804 36 L 35.804 33 L 35.804 15 Z  M 29.804 21 L 29.804 27 L 25.519 24 L 29.804 21 Z " fill="rgb(255,255,255)"/></svg>