<?xml version="1.0" encoding="UTF-8" standalone="no"?>
<!-- Generator: Gravit.io -->
<svg xmlns="http://www.w3.org/2000/svg" xmlns:xlink="http://www.w3.org/1999/xlink" style="isolation:isolate" viewBox="0 0 48 48" width="48pt" height="48pt"><g><g style="opacity:0.98999999;"><g opacity="0.98999999"><ellipse vector-effect="non-scaling-stroke" cx="23.982632510416085" cy="24.214345669385697" rx="22.779375237242014" ry="22.779378292924335" fill="rgb(255,184,108)" fill-opacity="0.7"/></g></g></g><path d=" M 34.227 24.2 L 36.593 29.263 C 31.335 29.778 27.831 32.046 23.722 33.711 C 19.533 31.976 15.85 29.953 10 29.168 L 13.407 24.2 L 14.361 24.2 L 14.794 27.464 L 23.194 31.962 L 29.556 29.885 L 32.228 24.2 L 34.227 24.2 Z " fill-rule="evenodd" fill="rgb(255,255,255)" fill-opacity="0.65140842"/><path d=" M 10.193 10 C 8.043 17.031 11.929 21.441 11.929 21.441 C 11.562 23.251 10.14 25.553 9.129 27.471 C 18.531 29.423 19.353 35.48 22.102 40.444 C 23.101 41.39 24.129 41.524 25.202 40.369 C 27.581 35.304 29.528 29.935 37.384 27.471 C 36.305 26.054 36.005 23.076 35.77 21.441 C 36.727 18.863 38.32 16.999 36.495 10 C 31.878 11.242 27.316 13.906 26.908 15.663 C 24.788 14.912 22.156 14.986 20.724 15.663 C 20.72 14.827 17.096 10.023 10.193 10 L 10.193 10 Z  M 11.253 12.224 C 11.253 12.224 12.869 14.487 13.059 15.771 C 13.25 17.055 12.39 19.518 12.39 19.518 C 12.39 19.518 11.274 17.615 11.052 16.373 C 10.83 15.131 11.253 12.224 11.253 12.224 Z  M 35.507 12.291 C 35.507 12.291 35.93 15.198 35.707 16.44 C 35.485 17.682 34.369 19.585 34.369 19.585 C 34.369 19.585 33.509 17.122 33.7 15.838 C 33.89 14.554 35.507 12.291 35.507 12.291 Z  M 14.968 23.332 L 18.314 26.879 L 15.303 26.009 L 14.968 23.332 Z  M 31.291 23.332 L 30.956 26.009 L 27.945 26.879 L 31.291 23.332 Z  M 25.67 37.251 L 23.662 40.196 L 21.722 37.318 L 25.67 37.251 Z " fill-rule="evenodd" fill="rgb(255,252,250)" fill-opacity="0.64788735"/><path d=" M 10.193 10 C 8.043 17.031 11.929 21.441 11.929 21.441 C 11.562 23.251 10.14 25.553 9.129 27.471 C 18.531 29.423 19.353 35.48 22.102 40.444 C 23.101 41.39 24.129 41.524 25.202 40.369 C 27.581 35.304 29.528 29.935 37.384 27.471 C 36.305 26.054 36.005 23.076 35.77 21.441 C 36.727 18.863 38.32 16.999 36.495 10 C 31.878 11.242 27.316 13.906 26.908 15.663 C 24.788 14.912 22.156 14.986 20.724 15.663 C 20.72 14.827 17.096 10.023 10.193 10 L 10.193 10 Z  M 11.253 12.224 C 11.253 12.224 12.869 14.487 13.059 15.771 C 13.25 17.055 12.39 19.518 12.39 19.518 C 12.39 19.518 11.274 17.615 11.052 16.373 C 10.83 15.131 11.253 12.224 11.253 12.224 Z  M 35.507 12.291 C 35.507 12.291 35.93 15.198 35.707 16.44 C 35.485 17.682 34.369 19.585 34.369 19.585 C 34.369 19.585 33.509 17.122 33.7 15.838 C 33.89 14.554 35.507 12.291 35.507 12.291 Z  M 14.968 23.332 L 18.314 26.879 L 15.303 26.009 L 14.968 23.332 Z  M 31.291 23.332 L 30.956 26.009 L 27.945 26.879 L 31.291 23.332 Z  M 25.67 37.251 L 23.662 40.196 L 21.722 37.318 L 25.67 37.251 Z " fill-rule="evenodd" fill="rgb(255,255,255)"/></svg>