<?xml version="1.0" encoding="UTF-8" standalone="no"?>
<!-- Generator: Gravit.io -->
<svg xmlns="http://www.w3.org/2000/svg" xmlns:xlink="http://www.w3.org/1999/xlink" style="isolation:isolate" viewBox="0 0 48 48" width="48pt" height="48pt"><path d=" M 46.825 25.824 C 46.218 38.494 35.468 48.28 22.797 47.697 C 10.126 47.114 0.32 36.382 0.88 23.71 C 1.439 11.038 12.154 1.212 24.827 1.749 C 37.5 2.285 47.346 12.982 46.832 25.656" fill="rgb(113,199,215)"/><g><path d=" M 23.859 1.651 C 14.46 1.651 6.374 7.272 2.779 15.336 C 3.586 17.113 4.631 18.818 5.923 20.402 C 8.957 24.119 12.908 26.642 17.184 27.917 C 20.623 19.498 28.893 13.564 38.55 13.564 C 40.593 13.564 42.575 13.829 44.462 14.327 C 40.661 6.806 32.862 1.651 23.859 1.651 Z  M 2.057 17.169 C 2.014 17.292 1.974 17.417 1.933 17.541 C 1.974 17.417 2.014 17.293 2.057 17.169 Z  M 1.933 17.541 C 1.892 17.666 1.851 17.791 1.812 17.917 C 1.851 17.792 1.892 17.666 1.933 17.541 Z  M 1.701 18.292 C 1.665 18.417 1.63 18.542 1.596 18.668 C 1.63 18.541 1.664 18.418 1.701 18.292 Z  M 1.596 18.668 C 1.561 18.794 1.526 18.922 1.494 19.049 C 1.526 18.923 1.562 18.794 1.596 18.668 Z  M 1.309 19.845 C 1.284 19.961 1.26 20.078 1.236 20.195 C 1.26 20.078 1.284 19.961 1.309 19.845 Z  M 1.163 20.58 C 1.145 20.679 1.129 20.779 1.112 20.879 C 1.129 20.779 1.145 20.679 1.163 20.58 Z  M 46.915 24.144 C 46.918 24.275 46.92 24.406 46.921 24.538 C 46.92 24.406 46.918 24.275 46.915 24.144 Z  M 46.861 26.434 C 46.851 26.569 46.838 26.704 46.826 26.839 C 46.838 26.704 46.851 26.569 46.861 26.434 Z  M 45.283 33.285 C 45.246 33.378 45.209 33.47 45.171 33.562 C 45.21 33.469 45.246 33.378 45.283 33.285 Z  M 44.509 35.013 C 44.463 35.106 44.417 35.2 44.369 35.293 C 44.417 35.2 44.463 35.106 44.509 35.013 Z  M 44.144 35.719 C 44.081 35.835 44.017 35.951 43.953 36.066 C 44.017 35.951 44.081 35.835 44.144 35.719 Z  M 37.156 43.575 C 37.053 43.648 36.949 43.72 36.844 43.791 C 36.948 43.72 37.053 43.648 37.156 43.575 Z " fill-rule="evenodd" fill="rgb(255,85,85)" fill-opacity="0.7"/><path d=" M 2.779 15.336 C -0.645 23.036 0.292 32.339 5.984 39.315 C 12.586 47.405 23.537 49.852 32.708 46.038 C 33.344 44.193 33.754 42.234 33.904 40.196 C 34.237 35.68 33.243 31.373 31.257 27.653 C 22.39 30.68 12.194 28.086 5.923 20.402 C 4.631 18.818 3.586 17.113 2.779 15.336 Z  M 46.915 24.144 C 46.918 24.275 46.92 24.406 46.921 24.538 C 46.92 24.406 46.918 24.275 46.915 24.144 Z  M 46.861 26.434 C 46.851 26.569 46.838 26.704 46.826 26.839 C 46.838 26.704 46.851 26.569 46.861 26.434 Z  M 45.283 33.285 C 45.246 33.378 45.21 33.469 45.171 33.562 C 45.209 33.47 45.246 33.378 45.283 33.285 Z  M 44.509 35.013 C 44.463 35.106 44.417 35.2 44.369 35.293 C 44.417 35.2 44.463 35.106 44.509 35.013 Z  M 44.144 35.719 C 44.081 35.835 44.017 35.951 43.953 36.066 C 44.017 35.951 44.081 35.835 44.144 35.719 Z  M 43.755 36.406 C 43.622 36.634 43.483 36.859 43.342 37.081 C 43.483 36.858 43.622 36.634 43.755 36.406 Z  M 43.342 37.081 C 43.271 37.192 43.201 37.302 43.129 37.412 C 43.201 37.302 43.271 37.192 43.342 37.081 Z  M 42.909 37.74 C 42.539 38.281 42.145 38.805 41.732 39.311 C 42.148 38.802 42.542 38.277 42.909 37.74 Z  M 41.732 39.311 C 41.649 39.413 41.565 39.514 41.48 39.614 C 41.565 39.513 41.649 39.413 41.732 39.311 Z  M 41.48 39.614 C 41.227 39.913 40.968 40.203 40.701 40.489 C 40.969 40.202 41.229 39.911 41.48 39.614 Z  M 40.701 40.489 C 40.612 40.584 40.521 40.681 40.43 40.775 C 40.522 40.681 40.611 40.584 40.701 40.489 Z  M 40.43 40.775 C 40.34 40.869 40.249 40.96 40.157 41.052 C 40.249 40.96 40.34 40.868 40.43 40.775 Z  M 39.291 41.873 C 39.199 41.956 39.105 42.036 39.011 42.118 C 39.105 42.036 39.199 41.955 39.291 41.873 Z  M 39.011 42.118 C 38.913 42.203 38.815 42.288 38.715 42.372 C 38.815 42.288 38.913 42.203 39.011 42.118 Z  M 37.156 43.575 C 37.053 43.648 36.948 43.72 36.844 43.791 C 36.949 43.72 37.053 43.648 37.156 43.575 Z  M 35.842 44.441 C 35.631 44.569 35.421 44.694 35.206 44.816 C 35.42 44.695 35.631 44.569 35.842 44.441 Z  M 35.174 44.835 C 35.063 44.897 34.952 44.956 34.84 45.016 C 34.951 44.956 35.063 44.897 35.174 44.835 Z  M 34.84 45.016 C 34.725 45.079 34.609 45.14 34.493 45.201 C 34.609 45.141 34.725 45.079 34.84 45.016 Z  M 34.14 45.382 C 34.022 45.441 33.905 45.498 33.787 45.554 C 33.905 45.498 34.022 45.441 34.14 45.382 Z  M 33.787 45.554 C 33.668 45.611 33.55 45.665 33.43 45.72 C 33.549 45.665 33.668 45.611 33.787 45.554 Z " fill-rule="evenodd" fill="rgb(80,250,123)" fill-opacity="0.7"/><path d=" M 3.871 13.198 C 3.814 13.296 3.757 13.395 3.702 13.494 C 3.757 13.395 3.814 13.296 3.871 13.198 Z  M 38.55 13.564 C 32.792 13.564 27.526 15.675 23.484 19.164 C 30.292 23.605 34.543 31.516 33.904 40.196 C 33.754 42.234 33.344 44.193 32.708 46.038 C 34.167 45.431 35.551 44.674 36.844 43.791 C 36.949 43.72 37.053 43.648 37.156 43.575 C 39.931 41.615 42.263 39.056 43.953 36.066 C 44.017 35.951 44.081 35.835 44.144 35.719 C 44.22 35.578 44.296 35.436 44.369 35.293 C 44.417 35.2 44.463 35.106 44.509 35.013 C 44.746 34.538 44.967 34.055 45.171 33.562 C 45.209 33.47 45.246 33.378 45.283 33.285 C 46.087 31.269 46.618 29.106 46.826 26.839 C 46.838 26.704 46.851 26.569 46.861 26.434 C 46.861 26.429 46.86 26.424 46.861 26.419 C 46.907 25.787 46.926 25.16 46.921 24.538 C 46.92 24.406 46.918 24.275 46.915 24.144 C 46.831 20.636 45.954 17.302 44.446 14.324 C 42.564 13.828 40.588 13.564 38.55 13.564 Z  M 1.309 19.845 C 1.284 19.961 1.26 20.078 1.236 20.195 C 1.26 20.078 1.284 19.961 1.309 19.845 Z  M 1.163 20.58 C 1.145 20.679 1.129 20.779 1.112 20.879 C 1.129 20.779 1.145 20.679 1.163 20.58 Z " fill-rule="evenodd" fill="rgb(241,250,140)" fill-opacity="0.7"/></g><circle vector-effect="non-scaling-stroke" cx="23.854011999999997" cy="24.724773" r="10.026071999999997" fill="rgb(255,255,255)"/></svg>