<?xml version="1.0" encoding="UTF-8" standalone="no"?>
<!-- Generator: Gravit.io -->
<svg xmlns="http://www.w3.org/2000/svg" xmlns:xlink="http://www.w3.org/1999/xlink" style="isolation:isolate" viewBox="0 0 48 48" width="48pt" height="48pt"><path d=" M 1.996 5.888 C 1.442 5.888 0.996 6.334 0.996 6.888 L 0.996 10.888 L 0.996 42.888 C 0.996 43.442 1.442 43.888 1.996 43.888 L 43.996 43.888 L 44.652 43.197 C 45.034 42.796 45.311 43.344 44.996 42.888 L 44.996 41.605 L 44.996 10.888 C 44.996 10.334 44.55 9.888 43.996 9.888 L 18.996 9.888 L 16.922 6.888 C 16.607 6.433 16.476 5.888 15.922 5.888 L 1.996 5.888 Z " fill="rgb(139,233,253)" fill-opacity="0.7"/><path d=" M 19.996 12 C 19.442 12 19.281 12.525 18.996 13 L 16 18 L 1.996 18 C 1.442 18 0.996 18.446 0.996 19 L 0.996 42.888 C 0.996 42.901 1.003 42.912 1.004 42.925 C 0.835 43.271 1.175 43.634 1.586 43.798 C 1.587 43.799 1.589 43.798 1.59 43.798 C 1.714 43.854 1.851 43.888 1.996 43.888 L 2.016 43.888 L 43.996 43.888 C 44.135 43.888 44.267 43.861 44.387 43.81 C 44.506 43.76 44.613 43.686 44.703 43.595 C 44.884 43.415 44.996 43.165 44.996 42.888 L 44.996 19 L 44.996 13 C 44.996 12.446 44.55 12 43.996 12 L 19.996 12 Z " fill="rgb(139,233,253)" fill-opacity="0.7"/></svg>